<?xml version="1.0" encoding="UTF-8" standalone="no"?>
<!DOCTYPE svg PUBLIC "-//W3C//DTD SVG 1.1//EN" "http://www.w3.org/Graphics/SVG/1.1/DTD/svg11.dtd">
<svg width="100%" height="100%" viewBox="0 0 50 67" version="1.1" xmlns="http://www.w3.org/2000/svg" xmlns:xlink="http://www.w3.org/1999/xlink" xml:space="preserve" xmlns:serif="http://www.serif.com/" style="fill-rule:evenodd;clip-rule:evenodd;stroke-linejoin:round;stroke-miterlimit:2;">
    <path d="M43.75,8.333l-8.333,0c-0,-2.291 -1.875,-4.166 -4.167,-4.166l-12.5,-0c-2.292,-0 -4.167,1.875 -4.167,4.166l-8.333,0c-2.292,0 -4.167,1.875 -4.167,4.167l0,4.167c0,2.291 1.875,4.166 4.167,4.166l0,37.5c0,2.292 1.875,4.167 4.167,4.167l29.166,0c2.292,0 4.167,-1.875 4.167,-4.167l0,-37.5c2.292,0 4.167,-1.875 4.167,-4.166l-0,-4.167c-0,-2.292 -1.875,-4.167 -4.167,-4.167Zm-4.167,50l-29.166,0l-0,-37.5l4.166,0l0,33.334l4.167,-0l0,-33.334l4.167,0l-0,33.334l4.166,-0l0,-33.334l4.167,0l0,33.334l4.167,-0l-0,-33.334l4.166,0l0,37.5Zm4.167,-41.666l-37.5,-0l0,-4.167l37.5,0l0,4.167Z"/>
</svg>
